<svg xmlns="http://www.w3.org/2000/svg" width="500" height="500" style="width:100%;height:100%;transform:translate3d(0,0,0);content-visibility:visible" viewBox="0 0 500 500"><defs><clipPath id="a"><path d="M0 0h500v500H0z"/></clipPath></defs><g clip-path="url(#a)"><g fill="#EBE6EF" style="display:block"><path d="M437.584 250c0 103.6-83.985 187.584-187.584 187.584-103.6 0-187.584-83.985-187.584-187.584 0-103.6 83.985-187.584 187.584-187.584 103.6 0 187.584 83.985 187.584 187.584z"/><path d="M86.69 154.157c-97.521 0-176.579-79.058-176.579-176.58 0-63.939 33.985-119.94 84.876-150.928-74.475 20.73-129.129 89.04-129.129 170.122 0 97.522 79.058 176.58 176.58 176.58 33.582 0 64.975-9.376 91.704-25.652-15.1 4.203-31.012 6.458-47.452 6.458z" opacity=".5" style="mix-blend-mode:multiply" transform="translate(204.917 253.43) scale(1.06232)"/></g><path fill="none" stroke="#121331" stroke-linecap="round" stroke-linejoin="round" stroke-width="2.1" d="m3.625 3.125.01-17.993" style="display:block" transform="matrix(4.859 0 0 4.9196 230.28 232.676)"/><path fill="none" stroke="#121331" stroke-linecap="round" stroke-linejoin="round" stroke-width="2.1" d="m3.635 3.733-.01-17.108" style="display:block" transform="translate(230.28 321.65) scale(4.859)"/><path fill="none" stroke="#121331" stroke-linecap="round" stroke-linejoin="round" stroke-width="2.1" d="M3.625 3.125v-16.5" style="display:block" transform="rotate(90 16.57 251.06) scale(4.859)"/><path fill="none" stroke="#121331" stroke-linecap="round" stroke-linejoin="round" stroke-width="2.1" d="M3.625 3.125v-16.5" style="display:block" transform="matrix(0 4.859 -5.02566 0 177.492 234.489)"/><g class="com" style="display:none"><path/><path/><path/><path/><path/><path/><path/><path/><path/><path/><path/><path/></g></g></svg>